<svg xmlns="http://www.w3.org/2000/svg" viewBox="0 0 756 783" role="img" aria-label="Running icon">
  <g fill="currentColor">
    <path d="M 519.0 144.0 L 527.0 154.0 L 534.0 172.0 L 533.0 193.0 L 524.0 211.0 L 510.0 224.0 L 491.0 231.0 L 425.0 232.0 L 420.0 236.0 L 354.0 366.0 L 343.0 394.0 L 341.0 419.0 L 345.0 437.0 L 353.0 452.0 L 362.0 462.0 L 490.0 546.0 L 501.0 557.0 L 444.0 725.0 L 445.0 742.0 L 453.0 757.0 L 466.0 768.0 L 482.0 773.0 L 492.0 773.0 L 508.0 768.0 L 526.0 750.0 L 607.0 532.0 L 606.0 520.0 L 600.0 510.0 L 489.0 411.0 L 484.0 403.0 L 519.0 332.0 L 567.0 246.0 L 575.0 223.0 L 572.0 197.0 L 563.0 178.0 L 540.0 154.0 Z"/><path d="M 400.0 509.0 L 352.0 475.0 L 339.0 462.0 L 330.0 444.0 L 252.0 551.0 L 248.0 553.0 L 104.0 553.0 L 87.0 561.0 L 78.0 571.0 L 73.0 582.0 L 73.0 602.0 L 78.0 614.0 L 87.0 624.0 L 97.0 630.0 L 108.0 633.0 L 286.0 633.0 L 294.0 631.0 L 309.0 623.0 L 318.0 614.0 Z"/><path d="M 512.0 157.0 L 501.0 146.0 L 491.0 141.0 L 480.0 139.0 L 318.0 139.0 L 303.0 144.0 L 292.0 153.0 L 285.0 164.0 L 236.0 291.0 L 233.0 311.0 L 238.0 328.0 L 246.0 338.0 L 263.0 347.0 L 279.0 348.0 L 294.0 343.0 L 306.0 333.0 L 312.0 323.0 L 349.0 225.0 L 356.0 216.0 L 489.0 215.0 L 495.0 213.0 L 507.0 205.0 L 517.0 187.0 L 517.0 169.0 Z"/><path d="M 543.0 319.0 L 591.0 375.0 L 601.0 380.0 L 616.0 381.0 L 628.0 377.0 L 731.0 324.0 L 743.0 309.0 L 746.0 288.0 L 740.0 273.0 L 732.0 264.0 L 719.0 257.0 L 700.0 256.0 L 632.0 289.0 L 623.0 289.0 L 612.0 278.0 L 586.0 243.0 Z"/><path d="M 578.0 10.0 L 555.0 17.0 L 532.0 36.0 L 519.0 62.0 L 517.0 86.0 L 520.0 101.0 L 527.0 117.0 L 544.0 136.0 L 568.0 148.0 L 597.0 150.0 L 613.0 146.0 L 627.0 139.0 L 644.0 123.0 L 656.0 99.0 L 658.0 71.0 L 649.0 45.0 L 633.0 26.0 L 610.0 13.0 L 598.0 10.0 Z"/><path d="M 39.0 447.0 L 42.0 457.0 L 48.0 460.0 L 265.0 460.0 L 274.0 453.0 L 273.0 443.0 L 266.0 438.0 L 48.0 438.0 L 42.0 441.0 Z"/><path d="M 10.0 325.0 L 12.0 335.0 L 21.0 339.0 L 195.0 338.0 L 201.0 331.0 L 201.0 323.0 L 194.0 317.0 L 18.0 317.0 Z"/><path d="M 62.0 214.0 L 64.0 225.0 L 72.0 229.0 L 215.0 229.0 L 222.0 226.0 L 225.0 221.0 L 225.0 214.0 L 219.0 207.0 L 69.0 207.0 Z"/><path d="M 158.0 386.0 L 159.0 397.0 L 168.0 402.0 L 299.0 402.0 L 306.0 399.0 L 309.0 394.0 L 307.0 384.0 L 301.0 380.0 L 165.0 380.0 Z"/><path d="M 138.0 163.0 L 140.0 169.0 L 148.0 174.0 L 238.0 174.0 L 246.0 169.0 L 248.0 160.0 L 240.0 152.0 L 147.0 152.0 L 141.0 155.0 Z"/><path d="M 100.0 272.0 L 101.0 279.0 L 110.0 285.0 L 193.0 285.0 L 200.0 280.0 L 202.0 274.0 L 200.0 268.0 L 191.0 263.0 L 109.0 263.0 L 102.0 267.0 Z"/><path d="M 152.0 501.0 L 153.0 508.0 L 162.0 514.0 L 240.0 514.0 L 246.0 511.0 L 249.0 506.0 L 247.0 496.0 L 239.0 492.0 L 161.0 492.0 L 156.0 494.0 Z"/>
  </g>
</svg>